<svg id="Capa_1" data-name="Capa 1" xmlns="http://www.w3.org/2000/svg" viewBox="0 0 468.27 540.75"><defs><style>.cls-1{fill:#fff;}.cls-2{font-size:173px;font-family:MyriadPro-Regular, Myriad Pro;}</style></defs><title>shopping-bag2</title><path class="cls-1" d="M460.8,442.58,431.48,112.45a14.11,14.11,0,0,0-14-12.88H357.14a101.15,101.15,0,0,0-202.28,0H94.55a14,14,0,0,0-14,12.88L51.2,442.58c0,.42-.1.84-.1,1.26C51.1,481.43,85.54,512,128,512h256.1c42.41,0,76.85-30.57,76.85-68.16A5.36,5.36,0,0,0,460.8,442.58ZM256,28.27a72.94,72.94,0,0,1,72.87,71.3H183.13A72.94,72.94,0,0,1,256,28.27ZM384.05,483.73H128c-26.6,0-48.17-17.59-48.58-39.26L107.43,128h47.32v42.93a14.14,14.14,0,0,0,28.27,0V128H328.87v42.93a14.14,14.14,0,0,0,28.27,0V128h47.33l28.16,316.52C432.22,466.14,410.54,483.73,384.05,483.73Z" transform="translate(-51.1)"/><ellipse class="cls-1" cx="320.54" cy="389.33" rx="147.73" ry="151.42"/><text class="cls-2" transform="translate(293.76 425.35) scale(0.9 1)">1</text></svg>