<svg xmlns="http://www.w3.org/2000/svg" width="334" height="408"><path fill-rule="evenodd" d="M104.788.046c18.664 0 77.08-.002 125.381 0 41.562 0 68.098-1.954 88.26 20.854 13.982 15.817 15.575 32.135 15.575 72.466v216.616c0 42.1-.151 61.261-17.652 79.765-14.472 15.301-31.78 18.247-58.667 18.247H119.066c-5.818.013-40.912 0-49.062 0-25.052 0-43.029-6.793-54.773-20.854C-.931 367.791.175 345.694.175 314.413c-.001-59.253.122-185.871 0-203.061-.327-46.058-2.18-76.291 19.988-94.884C40.367-.477 51.964.046 104.788.046z"/></svg>