<svg xmlns="http://www.w3.org/2000/svg" width="247" height="298"><path fill-rule="evenodd" d="M78.173.024c13.746 0 56.771-.002 92.346 0 30.611 0 50.156-1.427 65.005 15.231 10.298 11.553 11.472 23.472 11.472 52.93v158.218c0 30.751-.111 44.746-13.001 58.261-10.66 11.176-23.407 13.328-43.21 13.328H88.688c-4.284.01-30.132 0-36.135 0-18.451 0-31.691-4.962-40.341-15.232-11.904-14.133-11.09-30.272-11.09-53.12 0-43.279.09-135.762 0-148.318-.24-33.641-1.605-55.723 14.722-69.303C30.725-.359 39.267.024 78.173.024z"/></svg>