<svg xmlns="http://www.w3.org/2000/svg" width="594" height="722"><path fill-rule="evenodd" d="M186.364.071c33.191 0 137.079-.004 222.977 0 73.914 0 121.106-3.457 156.962 36.903 24.865 27.991 27.699 56.867 27.699 128.238v383.33c0 74.502-.268 108.41-31.393 141.154-25.737 27.077-56.517 32.29-104.333 32.29H211.755c-10.346.025-72.758 0-87.252 0-44.552 0-76.522-12.02-97.409-36.903C-1.648 650.842.319 611.739.319 556.384c-.001-104.857.216-328.922 0-359.343-.582-81.505-3.876-135.006 35.547-167.909C71.796-.855 92.421.071 186.364.071z"/></svg>