<svg xmlns="http://www.w3.org/2000/svg" width="289" height="464"><path fill-rule="evenodd" d="M72.496 459.5c15.612 1.158 129.874 4.498 140.816 4.498 16.938 0 36.84-4.153 51.174-18.999 26.773-27.731 24.467-89.823 24.467-103.203 0-9.133-.13-202.599 0-219.468.453-58.498-9.334-89.117-28.967-105.858C240.301-.315 224.861-.687 186.38.33c-44.379 1.173-70.783 3.289-93.885 4.139-38.158 1.404-58.986 6.116-76.496 34.002C.653 62.913.998 96.673.998 128.085L1 356.993c0 45.213 10.857 67.817 23.999 81.505 12.527 13.049 21.58 19.078 47.497 21.002z"/></svg>