<svg xmlns="http://www.w3.org/2000/svg" width="334" height="407"><path fill-rule="evenodd" d="M104.817 1.039c18.66 0 77.069-.002 125.364 0 41.556 0 68.089-1.937 88.247 20.677 13.98 15.684 15.574 31.865 15.574 71.855V309.39c0 41.746-.151 60.745-17.649 79.093-14.472 15.172-31.777 18.093-58.66 18.093H119.091c-5.816.014-40.906 0-49.055 0-25.048 0-43.022-6.736-54.765-20.678C-.889 366.712.216 344.802.216 313.785c0-58.754.122-185.334 0-202.379-.326-45.67-2.179-75.647 19.986-94.083C40.403.519 52 1.039 104.817 1.039z"/></svg>