<svg xmlns="http://www.w3.org/2000/svg" width="205" height="330"><path fill-rule="evenodd" d="M.238 253.096V76.505c0-16.611 2.304-27.13 4.432-35.521 2.129-8.392 9.429-20.418 14.758-25.016 5.329-4.598 11.843-9.343 27.32-11.534 12.226-1.73 23.744-1.781 37.286-2.175C97.576 1.865 132.197.257 146.791.316c14.594.058 26.69 1.896 34.749 8.996 8.058 7.1 11.936 12.935 14.969 19.743 3.033 6.807 5.823 14.234 6.872 27.693.797 10.215 1.122 17.836 1.122 23.865v166.315c0 11.967-.592 21.444-1.836 32.382-1.244 10.937-5.366 23.453-11.778 31.708-7.229 9.306-14.805 14.118-23.418 16.556-5.003 1.416-12.503 2.201-21.245 2.135-8.741-.065-68.866-2.301-80.347-2.722-11.481-.421-25.197-2.017-32.288-4.667-7.091-2.65-16.651-8.393-21.807-17.96-5.155-9.567-6.503-12.327-8.892-23.284C.504 270.118.238 259.903.238 253.096z"/></svg>